<?xml version="1.0" encoding="utf-8"?>
<!-- Generator: Adobe Illustrator 22.1.0, SVG Export Plug-In . SVG Version: 6.00 Build 0)  -->
<svg version="1.1" id="Layer_1" xmlns="http://www.w3.org/2000/svg" xmlns:xlink="http://www.w3.org/1999/xlink" x="0px" y="0px"
	 viewBox="0 0 32 32" style="enable-background:new 0 0 32 32;" xml:space="preserve">
<style type="text/css">
	.st0{fill:#210049;}
	.st1{fill:#E53935;}
	.st2{fill:#8E24AA;}
</style>
<g>
	<path class="st0" d="M31,5.8c0.2,6.8-0.5,13.6-1.9,20.4C28.9,27.1,28,28,27.2,28c-5.8,0.4-11.7,0.1-17.5-0.9
		c-0.8-0.1-1.6-1-1.8-1.8C6.5,19.2,5.8,13,5.9,6.9c0-0.8,0.9-1.7,1.8-1.9C14.9,3.8,22,3.5,29.1,4C30.1,4,31,4.9,31,5.8z"/>
	<path class="st1" d="M19.7,4.5c-5.2,1.3-10.6,3.2-15.8,5c-1,0.3-1.5,1.3-1.2,2.1C4.2,16,6.2,20.8,8,25.8c0.3,0.9,1.2,1.5,2,1.4
		c4.2-0.8,8.8-2.3,13.7-3.8c0.9-0.3,1.6-1.3,1.5-2.2c-0.5-5-1.8-10.1-3.3-15.4C21.6,4.9,20.6,4.3,19.7,4.5z"/>
	<path class="st2" d="M12.5,7.3c-3.6,2.1-7.2,4.5-10.7,6.5C1,14.3,0.7,15.3,1.3,16c2.3,3,4.6,6.5,6.6,10c0.5,0.8,1.4,1.2,2.1,0.8
		c2.9-1.8,6.2-3.9,9.8-6c0.9-0.5,1.3-1.6,0.9-2.4c-1.6-3.4-3.7-7-5.8-10.5C14.5,7.1,13.3,6.8,12.5,7.3z"/>
</g>
</svg>
