<?xml version="1.0" encoding="utf-8"?>
<!-- Generator: Adobe Illustrator 22.1.0, SVG Export Plug-In . SVG Version: 6.00 Build 0)  -->
<svg version="1.1" id="Layer_1" xmlns="http://www.w3.org/2000/svg" xmlns:xlink="http://www.w3.org/1999/xlink" x="0px" y="0px"
	 viewBox="0 0 1024 326.7" style="enable-background:new 0 0 1024 326.7;" xml:space="preserve">
<style type="text/css">
	.st0{fill:#210049;}
	.st1{fill:#E53935;}
	.st2{fill:#8E24AA;}
</style>
<g>
	<path class="st0" d="M473.9,156.7c8,2.7,13.4,10.5,13.4,19.7c0,11.4-8.5,20.8-19.9,20.8h-27.9h-0.9c-0.6,0-0.9-0.3-0.9-0.9v-61.4
		c0-0.6,0.3-0.9,0.9-0.9h2.4h20.7c8.9,0,15.1,6.3,15.1,14.2C476.8,151.4,475.8,154.4,473.9,156.7L473.9,156.7z M441,137.1v18.6h26.5
		c1,0,2,0.1,3,0.2c1.9-2,3-4.7,3-7.7c0-6.1-4.7-11.1-11.8-11.1H441z M484,176.4c0-9.8-6.9-17.7-16.8-17.7H441v35.4h26.1
		C477,194.1,484,186.1,484,176.4z"/>
	<path class="st0" d="M513.4,151.1c9.1,0,16.2,5.7,16.2,16.2v29c0,0.6-0.3,0.9-0.9,0.9h-1.4c-0.6,0-0.9-0.3-0.9-0.9v-5
		c-2.7,4.9-8.5,6.9-15,6.9c-8.5,0-16.2-4.8-16.2-13.9s7.6-13.9,16.2-13.9c6.6,0,12.2,2.3,14.9,6.8v-9.8c0-8.7-5.8-13.1-13.1-13.1
		c-7,0-12.5,3.8-13,10.5c-0.1,0.5-0.4,0.9-0.9,0.9h-1.4c-0.6,0-0.9-0.3-0.9-0.9C497.7,156.6,504.1,151.1,513.4,151.1L513.4,151.1z
		 M512,195.2c7.8,0,14.5-3.2,14.5-11c0-7.9-6.9-11-14.5-11c-8.5,0-13.4,4.5-13.4,11S503.5,195.2,512,195.2L512,195.2z"/>
	<path class="st0" d="M562.3,151.1c8.4,0,15,5.6,15,16v29.2c0,0.6-0.3,0.9-0.9,0.9h-1.4c-0.6,0-0.9-0.3-0.9-0.9v-29.2
		c0-8.3-5-13-12.2-13c-7.9,0-15.4,5.7-15.4,17.6v24.5c0,0.6-0.3,0.9-0.9,0.9h-1.4c-0.6,0-0.9-0.3-0.9-0.9V153c0-0.6,0.3-0.9,0.9-0.9
		h1.4c0.6,0,0.9,0.3,0.9,0.9v8.1C549.8,153.8,556.2,151.1,562.3,151.1L562.3,151.1z"/>
	<path class="st0" d="M632.1,185c-3,7.9-11,13.2-20.7,13.2c-13.5,0-23.6-10.2-23.6-23.5c0-13.3,10.1-23.5,23.6-23.5
		c9.7,0,17.7,5.3,20.7,13.2c0.3,0.6-0.1,1-0.7,1h-1.5c-0.5,0-0.9-0.2-1.1-0.7c-2.7-6.3-9.4-10.5-17.4-10.5c-11.7,0-20.4,9-20.4,20.5
		c0,11.5,8.7,20.5,20.4,20.5c8.1,0,14.7-4.2,17.4-10.5c0.2-0.5,0.6-0.7,1.1-0.7h1.5C632,183.9,632.4,184.4,632.1,185z"/>
	<path class="st0" d="M678.2,168.8v26.2c0,1.4-0.8,2.3-2.3,2.3h-8.7c-1.4,0-2.3-0.8-2.3-2.3v-1.3c-2.4,2.8-6,4.8-11.6,4.8
		c-7.9,0-14.9-4.7-14.9-14.1c0-9.4,6.9-14.1,14.9-14.1c5.7,0,9.2,1.6,11.6,3.4v-4.1c0-4.4-1.8-6.4-5.6-6.4c-2.8,0-4.5,1.1-5.2,2.6
		c-0.5,1.3-1,2-2.3,2H643c-1.4,0-2.3-0.8-2.3-2.3c1.2-9.7,9.5-14.7,18.7-14.7C669.3,150.8,678.2,156.6,678.2,168.8z M665,184.4
		c0-2.8-2.4-4.5-6.9-4.5c-4.2,0-6.1,1.9-6.1,4.5c0,2.6,2,4.5,6.1,4.5C662.6,188.9,665,187,665,184.4z"/>
	<path class="st0" d="M686.9,194.9v-60.5c0-1.4,0.8-2.3,2.3-2.3h9c1.4,0,2.3,0.8,2.3,2.3v60.5c0,1.4-0.8,2.3-2.3,2.3h-9
		C687.7,197.2,686.9,196.4,686.9,194.9z"/>
	<path class="st0" d="M710.4,144.4v-8.1c0-1.4,0.8-2.3,2.3-2.3h9c1.4,0,2.3,0.8,2.3,2.3v8.1c0,1.4-0.8,2.3-2.3,2.3h-9
		C711.2,146.6,710.4,145.8,710.4,144.4z M710.4,194.9v-40.6c0-1.4,0.8-2.3,2.3-2.3h9c1.4,0,2.3,0.8,2.3,2.3v40.6
		c0,1.4-0.8,2.3-2.3,2.3h-9C711.2,197.2,710.4,196.4,710.4,194.9z"/>
	<path class="st0" d="M771.3,168.8v26.2c0,1.4-0.8,2.3-2.3,2.3h-8.7c-1.4,0-2.3-0.8-2.3-2.3v-1.3c-2.4,2.8-6,4.8-11.6,4.8
		c-7.9,0-14.9-4.7-14.9-14.1c0-9.4,6.9-14.1,14.9-14.1c5.7,0,9.2,1.6,11.6,3.4v-4.1c0-4.4-1.8-6.4-5.6-6.4c-2.8,0-4.5,1.1-5.2,2.6
		c-0.5,1.3-1,2-2.3,2h-8.8c-1.4,0-2.3-0.8-2.3-2.3c1.2-9.7,9.5-14.7,18.7-14.7C762.5,150.8,771.3,156.6,771.3,168.8z M758.1,184.4
		c0-2.8-2.4-4.5-6.9-4.5c-4.2,0-6.1,1.9-6.1,4.5c0,2.6,2,4.5,6.1,4.5C755.7,188.9,758.1,187,758.1,184.4z"/>
	<path class="st0" d="M826.3,136.3v58.7c0,1.4-0.8,2.3-2.3,2.3h-9c-1.4,0-2.3-0.8-2.3-2.3v-2c-3,3.4-7.4,5.5-13.4,5.5
		c-11.8,0-21.6-10.4-21.6-23.8c0-13.4,9.7-23.8,21.6-23.8c6,0,10.4,2,13.4,5.5v-20c0-1.4,0.8-2.3,2.3-2.3h9
		C825.5,134,826.3,134.8,826.3,136.3z M812.8,174.6c0-6.8-4.5-11-10.7-11c-6.2,0-10.7,4.2-10.7,11c0,6.8,4.5,11,10.7,11
		C808.3,185.6,812.8,181.4,812.8,174.6z"/>
	<path class="st0" d="M834,174.6c0-13.4,10.6-23.8,23.9-23.8s23.9,10.4,23.9,23.8c0,13.4-10.6,23.8-23.9,23.8S834,188.1,834,174.6z
		 M868.3,174.6c0-6.4-4.5-10.6-10.4-10.6c-5.9,0-10.4,4.2-10.4,10.6c0,6.4,4.5,10.6,10.4,10.6C863.8,185.3,868.3,181,868.3,174.6z"
		/>
	<path class="st0" d="M924.8,183.6c0,10.4-8.8,14.8-18.8,14.8c-9.2,0-17.5-4.2-18.6-13.7c-0.2-1.5,0.7-2.3,2.2-2.3h8.8
		c1.4,0,1.8,0.7,2.4,1.9c0.7,1.5,2.4,2.4,5.1,2.4c3.8,0,5.2-1.3,5.2-3.1c0-6.5-23.6-0.5-23.6-18c0-10.2,8.8-14.8,18.3-14.8
		c8.4,0,16.6,4.2,17.7,13.7c0.2,1.5-0.7,2.3-2.2,2.3h-8.8c-1.4,0-1.8-0.7-2.4-2c-0.6-1.4-2.2-2.3-4.2-2.3c-3.3,0-4.8,1.3-4.8,3.1
		C901.2,172.3,924.8,166.1,924.8,183.6z"/>
</g>
<g>
	<path class="st0" d="M405.1,56.1c2.1,70-5.1,140-19.6,210.1c-2.1,9.3-11.3,18.5-19.6,18.5c-59.7,4.1-120.5,1-180.2-9.3
		c-8.2-1-16.5-10.3-18.5-18.5c-14.4-62.8-21.6-126.7-20.6-189.5c0-8.2,9.3-17.5,18.5-19.6c74.1-12.4,147.3-15.4,220.4-10.3
		C395.9,37.5,405.1,46.8,405.1,56.1z"/>
	<path class="st1" d="M288.8,42.7c-53.5,13.4-109.2,33-162.7,51.5c-10.3,3.1-15.4,13.4-12.4,21.6c15.4,45.3,36,94.7,54.6,146.2
		c3.1,9.3,12.4,15.4,20.6,14.4c43.2-8.2,90.6-23.7,141.1-39.1c9.3-3.1,16.5-13.4,15.4-22.7c-5.1-51.5-18.5-104-34-158.6
		C308.4,46.8,298.1,40.6,288.8,42.7z"/>
	<path class="st2" d="M214.6,71.5c-37.1,21.6-74.1,46.3-110.2,66.9c-8.2,5.1-11.3,15.4-5.1,22.7c23.7,30.9,47.4,66.9,68,103
		c5.1,8.2,14.4,12.4,21.6,8.2c29.9-18.5,63.8-40.2,100.9-61.8c9.3-5.1,13.4-16.5,9.3-24.7c-16.5-35-38.1-72.1-59.7-108.1
		C235.2,69.5,222.9,66.4,214.6,71.5z"/>
</g>
</svg>
