<?xml version="1.0" encoding="utf-8"?>
<!-- Generator: Adobe Illustrator 22.1.0, SVG Export Plug-In . SVG Version: 6.00 Build 0)  -->
<svg version="1.1" id="Layer_1" xmlns="http://www.w3.org/2000/svg" xmlns:xlink="http://www.w3.org/1999/xlink" x="0px" y="0px"
	 viewBox="0 0 32 32" style="enable-background:new 0 0 32 32;" xml:space="preserve">
<style type="text/css">
	.st0{fill:#666666;}
	.st1{fill:#FFFFFF;}
</style>
<g>
	<path class="st0" d="M25.2,1.8H6.8c-2.4,0-4.3,1.9-4.3,4.3v10.5C2.5,19,4.5,21,6.8,21h7V28c0,1.2,1,2.1,2.1,2.1s2.1-1,2.1-2.1V21h7
		c2.4,0,4.3-1.9,4.3-4.3V6.1C29.5,3.8,27.5,1.8,25.2,1.8z"/>
	<path class="st1" d="M19.4,8.7c-0.5,0-0.9,0.4-0.9,0.9c0-0.5-0.4-0.9-0.9-0.9c-0.5,0-0.9,0.4-0.9,0.9c0-0.5-0.4-0.9-0.9-0.9
		c-0.5,0-0.9,0.4-0.9,0.9v0.5l0,0V6.1c0-0.5-0.4-0.9-0.9-0.9c-0.5,0-0.9,0.4-0.9,0.9v4.6c0,0.1,0,0.2,0.1,0.3
		c-0.3-0.2-0.6-0.3-1-0.2c-0.4,0.2-0.6,0.7-0.4,1.2l1.7,3.5c0.1,0.2,0.2,0.3,0.4,0.4c0.4,0.4,1,0.7,1.7,0.7h2.2
		c1.3,0,2.4-1.1,2.4-2.4v-0.5v-1.3V9.6C20.2,9.1,19.8,8.7,19.4,8.7z"/>
</g>
</svg>
