<?xml version="1.0" encoding="utf-8"?>
<!-- Generator: Adobe Illustrator 22.1.0, SVG Export Plug-In . SVG Version: 6.00 Build 0)  -->
<svg version="1.1" id="Layer_1" xmlns="http://www.w3.org/2000/svg" xmlns:xlink="http://www.w3.org/1999/xlink" x="0px" y="0px"
	 viewBox="0 0 32 32" style="enable-background:new 0 0 32 32;" xml:space="preserve">
<style type="text/css">
	.st0{fill:#FFFFFF;}
</style>
<path class="st0" d="M22.2,16l7-7c1.1-1.1,1.1-2.8,0-3.9l-2.3-2.3c-1.1-1.1-2.8-1.1-3.9,0l-7,7l-7-7C8,1.7,6.2,1.7,5.1,2.8L2.8,5.1
	C1.7,6.2,1.7,8,2.8,9l7,7l-7,7c-1.1,1.1-1.1,2.8,0,3.9l2.3,2.3c1.1,1.1,2.8,1.1,3.9,0l7-7l7,7c1.1,1.1,2.8,1.1,3.9,0l2.3-2.3
	c1.1-1.1,1.1-2.8,0-3.9L22.2,16z"/>
</svg>
